<svg width="257" height="357" viewBox="0 0 257 357" fill="none" xmlns="http://www.w3.org/2000/svg">
<rect x="7" y="1" width="159" height="128" rx="24" stroke="black" stroke-width="2"/>
<rect x="80" y="129" width="21" height="31" stroke="black" stroke-width="2"/>
<rect x="26.5" y="29.5" width="56" height="3" fill="black" stroke="black"/>
<rect x="26.5" y="45.5" width="44" height="3" fill="black" stroke="black"/>
<rect x="26.5" y="59.5" width="71" height="3" fill="black" stroke="black"/>
<rect y="180" width="224" height="10" fill="black"/>
<rect x="26.5" y="76.5" width="44" height="3" fill="black" stroke="black"/>
<rect x="26" y="190" width="10" height="165" fill="black"/>
<rect x="204" y="190" width="10" height="165" fill="black"/>
<rect x="26.5" y="91.5" width="63" height="3" fill="black" stroke="black"/>
<rect x="54" y="161" width="73" height="20" stroke="black" stroke-width="4"/>
<path d="M120.72 343.733L111 340.827L113.267 317L122.987 319.908L120.72 343.733Z" fill="#AA5955"/>
<mask id="mask0_1509_946" style="mask-type:luminance" maskUnits="userSpaceOnUse" x="111" y="309" width="12" height="16">
<path d="M111.897 309.647H122.884V324.82H111.897V309.647Z" fill="white"/>
</mask>
<g mask="url(#mask0_1509_946)">
<g opacity="0.199997">
<path d="M122.884 312.54L113.164 309.647L111.897 322.995L121.724 324.821L122.884 312.54Z" fill="black"/>
</g>
</g>
<path d="M177.35 194.589C177.35 194.589 110.509 200.228 112.15 229.256C113.494 253.019 117.015 246.56 110.097 317.211L126.911 318.139C126.911 318.139 144.017 260.348 141.71 237.389C160.549 237.389 203.683 239.043 209.949 222.043C213.061 213.409 214.575 204.284 214.417 195.109L177.35 194.589Z" fill="#121313"/>
<path d="M129.586 321.392L107.612 317.633L107.972 307.913L130.719 312.966L129.586 321.392Z" fill="#141718"/>
<path d="M109.096 334.845L120.322 337.065C120.718 337.123 121.002 337.542 120.962 338.01L120.029 348.625C119.858 349.767 118.949 350.542 117.976 350.373C114.082 349.522 112.242 348.891 107.309 347.915C104.269 347.317 97.3224 345.853 93.0958 345.379C88.8691 344.907 89.3758 339.963 91.2024 339.71C99.4158 338.625 104.082 337.302 107.269 335.238C107.824 334.873 108.466 334.733 109.096 334.845Z" fill="#141718"/>
<path d="M106.206 336.408C104.351 336.408 103.046 336.195 102.659 335.648C102.503 335.384 102.503 335.058 102.659 334.795C102.702 334.65 102.818 334.539 102.965 334.502C103.645 334.355 105.166 335.475 106.206 336.408ZM104.059 336.768C104.942 336.887 105.837 336.915 106.726 336.848C106.817 336.847 106.898 336.788 106.925 336.702C106.97 336.623 106.97 336.527 106.925 336.448C106.645 336.168 104.125 333.782 102.833 334.048C102.527 334.102 102.277 334.316 102.178 334.608C101.965 335.035 101.995 335.544 102.258 335.942C102.737 336.428 103.378 336.722 104.059 336.768Z" fill="#121313"/>
<path d="M106.046 332.569C106.235 332.598 106.403 332.706 106.513 332.862C106.903 333.914 106.946 335.063 106.631 336.142C105.823 335.229 105.395 334.041 105.433 332.821C105.433 332.689 105.578 332.541 105.925 332.555L106.046 332.569ZM106.739 336.849H106.846C106.922 336.819 106.982 336.755 107.006 336.675C107.006 336.555 107.739 333.714 106.886 332.582C106.675 332.273 106.326 332.09 105.953 332.089C105.541 332.03 105.142 332.262 104.993 332.649C104.578 333.702 105.726 336.035 106.619 336.795C106.65 336.827 106.693 336.847 106.739 336.849Z" fill="#121313"/>
<path d="M76.4828 345.455L67.2295 341.295L73.6295 318.47L82.8828 322.628L76.4828 345.455Z" fill="#AA5955"/>
<mask id="mask1_1509_946" style="mask-type:luminance" maskUnits="userSpaceOnUse" x="71" y="312" width="14" height="17">
<path d="M71.8984 312.595H84.4451V328.528H71.8984V312.595Z" fill="white"/>
</mask>
<g mask="url(#mask1_1509_946)">
<g opacity="0.199997">
<path d="M84.4447 316.755L75.1927 312.595L71.8994 324.368L81.1514 328.528L84.4447 316.755Z" fill="black"/>
</g>
</g>
<path d="M157.455 194.589C157.016 194.589 82.523 202.256 82.4283 227.521C82.2683 269.309 70.335 317.211 70.335 317.211L85.0576 324.504C85.0576 324.504 110.696 272.575 110.31 240.003C130.803 234.121 183.816 244.003 190.083 227.015C195.215 213.121 192.442 194.589 192.442 194.589H157.455Z" fill="#121313"/>
<path d="M87.4124 326.618L67.6777 317.739L69.2657 309.658L90.0791 316.846L87.4124 326.618Z" fill="#141718"/>
<path d="M68.1492 333.625L79.4025 335.962C79.7918 336.034 80.0678 336.491 80.0292 337.001L79.1492 348.67C78.9985 349.937 78.0865 350.805 77.1118 350.61L77.1091 350.609C73.2158 349.709 71.3758 349.017 66.4425 347.994C63.4025 347.373 55.1225 345.363 50.9492 344.273C46.7758 343.182 47.7092 337.867 49.6158 337.831C57.8692 337.71 63.2158 336.361 66.3892 334.057C66.9225 333.665 67.5412 333.513 68.1492 333.625Z" fill="#141718"/>
<path d="M65.0332 334.588C63.5839 335.724 62.3706 336.277 61.7332 336.08C61.4492 335.957 61.2532 335.688 61.2252 335.38C61.1732 335.239 61.2052 335.083 61.3066 334.973C61.7826 334.495 63.6506 334.455 65.0332 334.588ZM63.5279 336.144C64.3106 335.719 65.0479 335.211 65.7239 334.629C65.7986 334.568 65.8306 334.468 65.8012 334.375C65.7732 334.288 65.6972 334.228 65.6066 334.22C65.2159 334.159 61.7746 333.711 60.8826 334.705C60.6812 334.936 60.6146 335.253 60.7012 335.545C60.7799 336.016 61.1039 336.409 61.5506 336.576C62.2399 336.685 62.9466 336.531 63.5279 336.144Z" fill="#121313"/>
<path d="M62.6227 331.592C62.7921 331.497 62.9921 331.477 63.1761 331.536C64.1161 332.157 64.8361 333.059 65.2321 334.113C64.0347 333.861 62.9801 333.159 62.2867 332.149C62.2081 332.043 62.2414 331.837 62.5294 331.644L62.6227 331.592ZM65.7227 334.629L65.8201 334.56C65.8707 334.499 65.8787 334.413 65.8441 334.343C65.7734 334.247 64.6774 331.515 63.3201 331.101C62.9694 330.987 62.5841 331.047 62.2841 331.261C61.9187 331.463 61.7374 331.888 61.8454 332.289C62.1307 333.385 64.4321 334.579 65.6134 334.66C65.6507 334.659 65.6894 334.648 65.7227 334.629Z" fill="#121313"/>
<path d="M182.763 113.972C184.723 118.186 186.336 122.239 187.95 126.452C189.563 130.666 190.99 134.879 192.31 139.199C193.63 143.519 194.776 147.946 195.696 152.532C196.7 157.298 197.2 162.156 197.19 167.026C197.175 169.886 196.747 172.727 195.923 175.466C195.403 177.143 194.655 178.74 193.696 180.212C193.139 181.047 192.5 181.824 191.79 182.532L191.216 183.092C190.896 183.359 190.55 183.652 190.216 183.879C189.654 184.266 189.056 184.595 188.43 184.866C187.506 185.275 186.54 185.583 185.55 185.786C184.771 185.951 183.983 186.067 183.19 186.132C181.836 186.218 180.478 186.218 179.123 186.132C176.718 186.018 174.322 185.75 171.95 185.332C163.099 183.723 154.43 181.24 146.068 177.919L148.003 170.572C156.47 171.586 165.11 172.666 173.256 173.039C175.283 173.039 177.256 173.132 179.096 173.039C179.916 172.996 180.732 172.892 181.536 172.732C182.203 172.612 182.776 172.372 182.576 172.386C182.444 172.431 182.318 172.494 182.203 172.572C182.068 172.652 181.944 172.746 181.83 172.852C181.83 172.852 181.896 172.746 181.95 172.626C182.123 172.244 182.256 171.847 182.35 171.439C182.647 169.974 182.768 168.479 182.71 166.986C182.514 163.167 181.947 159.375 181.016 155.666C180.11 151.666 178.936 147.772 177.656 143.812C176.376 139.852 174.99 135.892 173.47 131.946C171.95 127.999 170.35 124.039 168.776 120.319L182.763 113.972Z" fill="#AA5955"/>
<path d="M151.681 172.573L142.841 167.599L138.401 177.173C138.401 177.173 148.735 181.479 150.909 178.786L151.681 172.573Z" fill="#AA5955"/>
<path d="M135.681 169.412L131.643 175.812L138.401 177.105L142.841 167.532L135.681 169.412Z" fill="#AA5955"/>
<path d="M162.149 121.576C160.456 125.829 158.683 129.896 156.816 134.016C154.949 138.136 153.083 142.189 151.109 146.243C147.137 154.496 142.684 162.511 137.776 170.243C136.443 172.216 135.109 174.176 133.616 176.136C132.869 177.123 132.043 178.096 131.163 179.096C130.683 179.603 130.296 180.069 129.736 180.589L128.936 181.363L128.483 181.789C127.215 182.876 125.721 183.668 124.109 184.109C123.26 184.351 122.397 184.533 121.523 184.656C120.099 184.828 118.663 184.887 117.229 184.829C114.753 184.749 112.287 184.505 109.843 184.096C100.803 182.5 91.9493 179.988 83.416 176.603L85.3627 169.243C93.9893 170.283 102.803 171.389 111.096 171.736C113.052 171.811 115.011 171.785 116.963 171.656C117.749 171.593 118.529 171.469 119.296 171.283C119.547 171.224 119.788 171.135 120.016 171.016C120.096 171.016 120.016 170.923 119.656 171.149C119.525 171.223 119.404 171.312 119.296 171.416C119.296 171.416 119.389 171.296 119.429 171.256L119.803 170.843C120.043 170.603 120.336 170.203 120.616 169.883C121.163 169.188 121.723 168.443 122.283 167.629C123.389 166.043 124.469 164.283 125.536 162.496C127.669 158.923 129.656 155.123 131.603 151.283C133.549 147.443 135.416 143.523 137.256 139.576C140.923 131.709 144.509 123.643 147.923 115.709L162.149 121.576Z" fill="#AA5955"/>
<path d="M89.1488 171.163L80.2955 166.123L75.8555 175.696C75.8555 175.696 86.1888 180.016 88.3755 177.323L89.1488 171.163Z" fill="#AA5955"/>
<path d="M73.149 168.015L69.0957 174.402L75.8557 175.696L80.2957 166.122L73.149 168.015Z" fill="#AA5955"/>
<path d="M185.042 74.269L179.389 80.8157L170.761 89.741C170.938 90.1797 171.177 90.7517 171.421 91.357C172.085 93.0024 172.478 94.749 172.571 96.521C172.759 100.098 172.417 103.124 166.775 105.549C166.775 105.549 160.855 113.282 174.935 111.136C189.015 108.989 191.135 101.682 191.135 101.682C184.895 97.2424 184.549 82.4824 185.042 74.269Z" fill="#AA5955"/>
<path d="M156.335 66.8825C156.335 67.7625 155.895 68.5092 155.309 68.5359C154.722 68.5625 154.255 67.8692 154.243 66.9892C154.229 66.1092 154.697 65.3625 155.269 65.3359C155.842 65.3092 156.322 66.0025 156.335 66.8825Z" fill="#141718"/>
<path d="M159.282 63.6025C159.109 63.6012 158.947 63.5105 158.857 63.3625C158.157 62.2145 156.965 61.4559 155.63 61.3092C155.345 61.2945 155.122 61.0599 155.122 60.7759C155.13 60.4892 155.367 60.2625 155.655 60.2692C157.341 60.4185 158.855 61.3585 159.735 62.8025C159.883 63.0465 159.813 63.3639 159.577 63.5225C159.486 63.5745 159.386 63.6025 159.282 63.6025Z" fill="#141718"/>
<path d="M156.016 67.376C155.3 69.7773 154.268 72.072 152.948 74.2026C154.058 74.828 155.387 74.9253 156.576 74.4693L156.016 67.376Z" fill="#B45555"/>
<path d="M185.841 62.4425C185.321 73.3225 185.561 79.7758 180.161 85.5358C174.901 91.3331 165.937 91.7678 160.141 86.5078C158.016 84.5798 156.525 82.0505 155.869 79.2558C153.416 69.6158 154.696 53.4425 165.203 48.5891C172.289 45.0785 180.879 47.9771 184.391 55.0638C185.523 57.3505 186.024 59.8971 185.841 62.4425Z" fill="#AA5955"/>
<path d="M190.779 66.071C189.206 70.6843 186.819 74.9776 183.713 78.7376L169.553 81.4043C169.553 81.4043 158.366 76.7243 161.354 69.0176C159.461 67.4176 160.166 62.471 161.499 59.751C163.634 61.4576 167.141 61.6043 169.059 59.551C170.606 62.391 175.247 62.791 177.259 60.231C179.567 62.791 184.486 62.0043 185.873 58.8443C187.581 59.9643 190.033 59.8043 191.581 58.471C191.646 58.4043 191.713 58.351 191.779 58.2843C192.006 60.231 191.779 62.7776 190.779 66.071Z" fill="#141718"/>
<mask id="mask2_1509_946" style="mask-type:luminance" maskUnits="userSpaceOnUse" x="160" y="58" width="32" height="24">
<path d="M160.196 58.2843H191.86V81.4043H160.196V58.2843Z" fill="white"/>
</mask>
<g mask="url(#mask2_1509_946)">
<g opacity="0.100006">
<path d="M190.779 66.0715C189.206 70.6848 186.819 74.9781 183.713 78.7381L169.553 81.4048C169.553 81.4048 158.366 76.7248 161.354 69.0181C159.461 67.4181 160.166 62.4715 161.499 59.7515C163.634 61.4581 167.141 61.6048 169.059 59.5515C170.606 62.3915 175.247 62.7915 177.259 60.2315C179.567 62.7915 184.486 62.0048 185.873 58.8448C187.581 59.9648 190.033 59.8048 191.581 58.4715C191.646 58.4048 191.713 58.3515 191.779 58.2848C192.006 60.2315 191.779 62.7781 190.779 66.0715Z" fill="white"/>
</g>
</g>
<path d="M192.82 52.8842C193.62 54.6708 193.18 56.9242 191.78 58.2842C191.713 58.3509 191.647 58.4042 191.58 58.4708C190.033 59.8042 187.58 59.9642 185.873 58.8442C184.487 62.0042 179.568 62.7908 177.26 60.2308C175.247 62.7908 170.607 62.3908 169.06 59.5508C167.14 61.6042 163.633 61.4575 161.5 59.7508C160.94 59.3108 160.473 58.7508 160.167 58.0975C160.087 57.9508 160.033 57.8042 159.98 57.6575C159.86 57.7908 159.74 57.9108 159.607 58.0175C158.313 59.0842 156.273 59.2442 154.86 58.2975C153.7 57.5242 153.06 56.0842 153.153 54.7109C153.167 54.4175 153.22 54.1375 153.3 53.8575C153.193 54.0575 153.06 54.2442 152.901 54.4042C151.74 55.6442 149.287 55.6975 148.153 54.2842C146.74 52.5375 147.54 49.6309 149.473 48.4709C150.247 48.0175 151.1 47.8042 151.98 47.8042C153.34 47.8042 154.727 48.2975 155.807 49.1242C154.647 47.4575 155.06 44.9109 156.687 43.6975C158.313 42.4975 160.873 42.8309 162.127 44.4175C161.953 42.5242 162.58 41.3909 163.553 40.8042C165.393 39.7375 168.46 40.6575 169.953 42.4442C169.953 42.4442 172.007 37.4842 175.553 38.0442C176.327 38.1508 179.967 39.7642 179.873 41.0709C179.873 41.1642 179.848 41.2442 179.807 41.3242C179.86 41.2175 179.913 41.1242 179.98 41.0309C180.673 39.9375 182.073 39.3909 183.393 39.4175C184.82 39.4309 186.181 39.9775 187.5 40.5109C190.26 41.6442 193.193 42.9109 194.793 45.4309C196.38 47.9642 195.687 52.0842 192.82 52.8842Z" fill="#141718"/>
<path d="M167.602 70.0287C167.216 72.7167 165.982 75.21 164.082 77.1487C161.669 79.4553 159.616 77.1487 159.589 73.642C159.589 70.4687 160.776 65.442 163.589 64.5087C166.402 63.5753 168.122 66.5753 167.602 70.0287Z" fill="#AA5955"/>
<path d="M210.243 105.469C209.243 102.802 204.576 100.136 201.709 100.136H199.816C196.508 100.136 192.388 100.402 188.388 100.869C180.768 101.713 173.2 102.985 165.721 104.682C162.281 105.589 158.963 106.736 156.323 107.722C152.963 109.056 150.989 109.949 150.989 109.949C150.989 109.949 154.671 134.462 156.576 158.81C157.635 172.36 157.197 185.816 157.536 195.069H214.416C216.376 183.949 216.067 174.25 216.227 154.172C216.32 142.118 214.363 116.442 210.243 105.469Z" fill="#141718"/>
<mask id="mask3_1509_946" style="mask-type:luminance" maskUnits="userSpaceOnUse" x="155" y="124" width="13" height="38">
<path d="M155.347 124.667H167.04V161.028H155.347V124.667Z" fill="white"/>
</mask>
<g mask="url(#mask3_1509_946)">
<g opacity="0.199997">
<path d="M155.348 145.202C155.773 150.308 156.213 155.668 156.681 161.028C163.348 151.295 167.041 124.667 167.041 124.667L155.348 145.202Z" fill="black"/>
</g>
</g>
<path d="M147.775 111.742C139.629 116.328 131.643 139.8 131.643 139.8L150.296 153.875C157.415 147.142 167.828 130.435 168.963 123.755C170.789 113.502 160.828 104.435 147.775 111.742Z" fill="#141718"/>
<path d="M131.678 350.665C131.678 353.868 129.081 356.465 125.877 356.465C122.674 356.465 120.078 353.868 120.078 350.665C120.078 347.462 122.674 344.865 125.877 344.865C129.081 344.865 131.678 347.462 131.678 350.665Z" fill="#09090A"/>
<path d="M218.197 350.665C218.197 353.868 220.793 356.465 223.997 356.465C227.2 356.465 229.797 353.868 229.797 350.665C229.797 347.462 227.2 344.865 223.997 344.865C220.793 344.865 218.197 347.462 218.197 350.665Z" fill="#09090A"/>
<path d="M169.292 348.811C169.292 352.014 171.888 354.611 175.092 354.611C178.295 354.611 180.891 352.014 180.891 348.811C180.891 345.608 178.295 343.01 175.092 343.01C171.888 343.01 169.292 345.608 169.292 348.811Z" fill="#09090A"/>
<path d="M173.291 341.652V330.439H156.677C153.416 330.441 150.161 330.744 146.957 331.345L116.023 337.356C114.496 337.655 113.501 339.131 113.799 340.656C114.063 342.011 115.269 342.973 116.649 342.931L173.291 341.652Z" fill="#09090A"/>
<path d="M173.291 341.652V330.438H189.918C193.178 330.44 196.431 330.742 199.638 331.345L234.404 336.902C235.93 337.2 236.926 338.678 236.627 340.202C236.364 341.557 235.156 342.52 233.778 342.477L173.291 341.652Z" fill="#09090A"/>
<path d="M162.997 279.105H183.572V330.452H162.997V279.105Z" fill="#09090A"/>
<path d="M165.957 255.212H180.624V279.092H165.957V255.212Z" fill="#09090A"/>
<mask id="mask4_1509_946" style="mask-type:luminance" maskUnits="userSpaceOnUse" x="165" y="255" width="16" height="11">
<path d="M165.957 255.212H180.624V265.919H165.957V255.212Z" fill="white"/>
</mask>
<g mask="url(#mask4_1509_946)">
<g opacity="0.5">
<path d="M165.958 262.225L180.625 265.919V255.211H165.958V262.225Z" fill="black"/>
</g>
</g>
<path d="M118.424 201.184H125.877V232.985H118.424V201.184Z" fill="#141718"/>
<path d="M163.244 255.212V116.968C163.244 111.733 165.503 106.755 169.441 103.307L179.295 94.6813C182.605 91.7826 186.855 90.1853 191.255 90.1853H226.849L244.243 108.692V255.212H163.244Z" fill="#E3CCCC"/>
<path d="M110.251 228.464H191.451V255.212H97.024C91.7227 255.215 87.42 250.922 87.416 245.619C87.4147 243.894 87.8787 242.202 88.7574 240.718C93.2507 233.12 101.424 228.462 110.251 228.464Z" fill="#E3CCCC"/>
<mask id="mask5_1509_946" style="mask-type:luminance" maskUnits="userSpaceOnUse" x="87" y="90" width="158" height="166">
<path d="M87.4199 90.1911H244.247V255.218H87.4199V90.1911Z" fill="white"/>
</mask>
<g mask="url(#mask5_1509_946)">
<g opacity="0.699997">
<path d="M244.247 108.698V255.218H97.0199C91.7253 255.218 87.4199 250.924 87.4199 245.618C87.4199 243.898 87.8733 242.204 88.7533 240.726C93.2466 233.138 101.392 228.471 110.207 228.471H151.105C157.811 228.471 163.247 223.035 163.247 216.33V116.964C163.247 111.738 165.499 106.751 169.445 103.311L179.3 94.6844C182.607 91.7778 186.86 90.1911 191.26 90.1911H226.845L244.247 108.698Z" fill="white"/>
</g>
</g>
<path d="M175.092 255.212V116.968C175.092 111.733 177.35 106.755 181.288 103.307L191.142 94.6813C194.453 91.7826 198.702 90.1853 203.102 90.1853H230.844C235.854 90.1853 240.644 92.2559 244.074 95.9066L251.165 103.451C254.329 106.817 256.09 111.264 256.09 115.885V241.369C256.09 249.015 249.894 255.212 242.249 255.212H175.092Z" fill="white"/>
<mask id="mask6_1509_946" style="mask-type:luminance" maskUnits="userSpaceOnUse" x="175" y="90" width="82" height="166">
<path d="M175.092 90.1857H256.09V255.212H175.092V90.1857Z" fill="white"/>
</mask>
<g mask="url(#mask6_1509_946)">
<g opacity="0.5">
<path d="M175.092 255.212V116.968C175.092 111.733 177.35 106.755 181.288 103.307L191.142 94.6813C194.453 91.7826 198.702 90.1853 203.102 90.1853H230.844C235.854 90.1853 240.644 92.2559 244.074 95.9066L251.165 103.451C254.329 106.817 256.09 111.264 256.09 115.885V241.369C256.09 249.015 249.894 255.212 242.249 255.212H175.092Z" fill="white"/>
</g>
</g>
<path d="M147.465 210.891C131.061 205.165 113.202 205.165 96.798 210.891C93.3914 212.175 89.5647 210.715 87.878 207.491C86.358 204.278 88.398 200.118 92.5314 198.665C111.687 191.971 132.547 191.971 151.705 198.665C155.837 200.105 157.878 204.278 156.358 207.491C154.667 210.698 150.862 212.153 147.465 210.891Z" fill="#E3CCCC"/>
<mask id="mask7_1509_946" style="mask-type:luminance" maskUnits="userSpaceOnUse" x="87" y="193" width="70" height="19">
<path d="M87.376 193.644H156.86V211.356H87.376V193.644Z" fill="white"/>
</mask>
<g mask="url(#mask7_1509_946)">
<g opacity="0.699997">
<path d="M147.465 210.891C131.061 205.165 113.202 205.165 96.798 210.891C93.3914 212.175 89.5647 210.715 87.878 207.491C86.358 204.278 88.398 200.118 92.5314 198.665C111.687 191.971 132.547 191.971 151.705 198.665C155.837 200.105 157.878 204.278 156.358 207.491C154.667 210.698 150.862 212.153 147.465 210.891Z" fill="white"/>
</g>
</g>
</svg>
